<?xml version="1.0" encoding="utf-8"?>
<!-- Generator: Adobe Illustrator 24.0.1, SVG Export Plug-In . SVG Version: 6.00 Build 0)  -->
<svg version="1.1" id="Capa_1" xmlns="http://www.w3.org/2000/svg" xmlns:xlink="http://www.w3.org/1999/xlink" x="0px" y="0px"
	 viewBox="0 0 679 681.8" style="enable-background:new 0 0 679 681.8;" xml:space="preserve">
<style type="text/css">
	.st0{fill:#2F2F2F;}
</style>
<g>
	<path d="M670.5,317c-4.9,0.2-8,0.5-11,0.5c-58.1,0-116.2-0.1-174.2,0.2c-7.6,0-10.5-2.3-12.8-9.7C455,251.3,417,216.2,358,207.8
		c-65.5-9.3-124.6,29-146.6,91.9c-6.7,19.2-6.7,19-27,19c-53.5-0.1-107.1-0.1-160.6-0.2c-4.4,0-8.9-0.4-15.3-0.8
		C18.8,206,68.7,118.2,163,61C279.7-10,400.9-9.8,517.3,62C610.5,119.5,659.8,206.9,670.5,317z"/>
	<path d="M339.1,437.4c-51.3-0.1-92.5-41.5-92.6-92.9c-0.1-51.6,41.8-93.1,93.8-92.7c51.2,0.3,92.2,42,92,93.5
		C432.1,396.4,390.5,437.5,339.1,437.4z"/>
	<g>
		<path class="st0" d="M11.6,373.3c9.6,0,18.2,0,26.9,0c50.4,0,100.8,0,151.2,0c17.1,0,17.1,0,23.1,15.9
			c21.5,58,74.1,94.4,134.5,91.1c60.3-3.3,100.5-35.8,123.4-90.8c6.5-15.7,6.2-15.9,23.6-15.9c54.6,0,109.2-0.1,163.8-0.1
			c3.4,0,6.8,0,10.2,0C665.6,501.9,547,664.5,358.9,673.4C151.4,683.2,20.3,518.5,11.6,373.3z M39,397
			C53.3,514.4,177,667.3,372.3,648.4c82.5-8,150.3-45.8,203.7-108.8c34.7-40.9,58.3-87.2,65.8-142.4c-5.4,0-9.2,0-13,0
			c-39.5,0-79.1,0.6-118.6-0.4c-12.3-0.3-18,3.4-23.4,14.5c-32.4,68.1-99.1,103.1-173.4,90.5c-54.6-9.3-93.4-40.7-117.1-90.4
			c-5-10.6-11.1-15.1-23.2-14.9c-40.9,0.7-81.9,0.3-122.8,0.4C46.6,397,42.8,397,39,397z"/>
		<path class="st0" d="M31,392c4,0,7.9,0,11.7,0c41.9,0,83.7,0.4,125.6-0.4c12.4-0.2,18.6,4.4,23.7,15.2
			c24.2,50.8,63.9,82.9,119.7,92.4c76,12.9,144.2-22.9,177.4-92.5c5.4-11.4,11.4-15.1,23.9-14.9c40.4,1,80.8,0.4,121.3,0.4
			c3.9,0,7.7,0,13.3,0c-7.7,56.4-31.8,103.8-67.2,145.6c-54.7,64.4-124,103.1-208.4,111.3C172.2,668.4,45.6,512.1,31,392z"/>
		<path class="st0" d="M42.1,401.6c4,0,7.9,0,11.7,0c41.9,0,83.7,0.4,125.6-0.4c12.4-0.2,18.6,4.4,23.7,15.2
			c24.2,50.8,64,82.9,119.7,92.4c76,12.9,144.2-22.9,177.4-92.5c5.4-11.4,11.4-15.1,23.9-14.9c40.4,1,80.8,0.4,121.3,0.4
			c3.9,0,7.7,0,13.3,0c-7.7,56.4-31.8,103.8-67.2,145.6c-54.7,64.4-124,103.1-208.4,111.3C183.3,678,56.8,521.7,42.1,401.6z"/>
	</g>
</g>
</svg>
